# xmcd CD database file
#
# Track frame offsets:
#	150
#	17725
#	35277
#	56280
#	70390
#	88402
#	105775
#	118770
#	139427
#	156327
#	174520
#
# Disc length: 2594 seconds
#
# Revision: 1
# Processed by: cddbd v1.5.2PL0 Copyright (c) Steve Scherf et al.
# Submitted via: CDex 1.50Beta7
#
DISCID=920a200b
DTITLE=Nocaute - CD Pirata
DYEAR=1900
DGENRE=Rap Nacional
TTITLE0=É proibido tocar
TTITLE1=Dificuldade
TTITLE2=Fim de semana (É isso que agente quer)
TTITLE3=CD Pirata
TTITLE4=Informação pra que
TTITLE5=Agora é a minha vez
TTITLE6=Contraste social
TTITLE7=Tôca ninja
TTITLE8=Bebum
TTITLE9=Minha rádio
TTITLE10=Sei que o senhor tá de olho
EXTD=adg
EXTT0=
EXTT1=
EXTT2=
EXTT3=
EXTT4=
EXTT5=
EXTT6=
EXTT7=
EXTT8=
EXTT9=
EXTT10=
PLAYORDER=
